<svg width="32" height="33" viewBox="0 0 32 33" fill="none" xmlns="http://www.w3.org/2000/svg">
<g clip-path="url(#clip0_4_35)">
<ellipse cx="16" cy="16.0349" rx="16" ry="16.0349" fill="black"/>
<path d="M9.85278 11.9321L9.45528 12.7689C9.41716 12.8492 9.39738 12.9369 9.39738 13.0258V13.1703C9.39738 13.4211 9.60071 13.6244 9.85153 13.6244C10.1785 13.6244 10.4834 13.4595 10.6623 13.1858L10.9694 12.7161L11.3226 12.2746C11.7362 11.7577 12.2356 11.3157 12.799 10.9681L12.8474 10.9382C13.339 10.6349 13.8759 10.4121 14.4378 10.2783C14.849 10.1804 15.2703 10.131 15.693 10.131H16.6036C16.9912 10.131 17.3771 10.1836 17.7507 10.2873C18.2106 10.4151 18.646 10.6188 19.0388 10.89L19.1202 10.9463C19.6435 11.3075 20.091 11.7677 20.4375 12.3008L20.4752 12.3589C20.7049 12.7122 20.8909 13.092 21.0294 13.49L21.3799 14.4978L21.7753 15.4863C21.8741 15.7333 22.1133 15.8952 22.3792 15.8952C22.4802 15.8952 22.5798 15.8717 22.6701 15.8265L22.7452 15.789C23.086 15.6185 23.3013 15.2702 23.3013 14.8891V14.5769C23.3013 14.3636 23.2561 14.1526 23.1687 13.958L22.5328 12.5415L22.2187 12.0049C21.8714 11.4116 21.4306 10.8784 20.9132 10.4257C20.504 10.0677 20.0508 9.76337 19.5645 9.52022L19.4114 9.44367C19.0706 9.27329 18.7177 9.12838 18.3556 9.01012L17.8503 8.84513C17.4098 8.70129 16.9557 8.60301 16.4951 8.55183L16.451 8.54694C15.6905 8.46243 14.921 8.51233 14.1777 8.69436C13.7864 8.79018 13.4048 8.92203 13.0379 9.08821L12.4044 9.37508C11.9626 9.57512 11.5533 9.8402 11.1901 10.1615C10.9504 10.3735 10.7323 10.6087 10.5389 10.8637L10.3546 11.1065C10.1595 11.3638 9.99132 11.6404 9.85278 11.9321Z" fill="#02BDBD"/>
<path d="M9.25621 18.4832L9.24143 18.5127C9.1204 18.7548 9.12662 19.041 9.25805 19.2776L9.34785 19.4392C9.38081 19.4985 9.40854 19.5606 9.43074 19.6247L9.49627 19.814C9.63868 20.2254 9.85725 20.6064 10.1406 20.9369L10.2347 21.0468C10.4444 21.2913 10.6812 21.5112 10.9408 21.702L11.738 22.2882L12.3382 22.6814C12.613 22.8614 12.9027 23.0174 13.2042 23.1476L13.2442 23.1649C13.9329 23.4623 14.6752 23.6157 15.4254 23.6157C15.7148 23.6157 16.0039 23.5928 16.2898 23.5474L16.4968 23.5144C17.0953 23.4192 17.6814 23.2576 18.244 23.0325L18.4454 22.9519C19.188 22.6503 19.8917 22.2606 20.5415 21.7913L20.821 21.5895L21.2172 21.3359C21.5322 21.1343 21.8044 20.8726 22.0182 20.5658L22.1766 20.3386C22.3863 20.0377 22.5048 19.6828 22.5179 19.3162L22.5291 19.0012C22.5315 18.9342 22.5194 18.8675 22.4936 18.8056C22.4135 18.6133 22.2151 18.4977 22.0082 18.5227L21.6705 18.5637C21.3784 18.5991 21.1212 18.7729 20.9794 19.0307L20.821 19.3188L20.6147 19.6076C20.4034 19.9034 20.1631 20.1773 19.8973 20.4254C19.4679 20.8262 18.9689 21.1585 18.4347 21.4028C18.1653 21.5259 17.8827 21.6289 17.5972 21.7075L17.3583 21.7732C16.8742 21.9063 16.3743 21.9738 15.8722 21.9738H15.8307C15.3175 21.9738 14.8069 21.8995 14.3149 21.7532C13.9488 21.6444 13.5955 21.4964 13.2611 21.3119L12.7511 21.0305L12.1151 20.57C11.8643 20.3884 11.6319 20.1827 11.4212 19.9558L11.0804 19.5887C10.9146 19.4102 10.7827 19.2031 10.691 18.9774L10.4668 18.4256C10.4084 18.2818 10.2949 18.1673 10.1516 18.1076C10.0255 18.055 9.88484 18.0485 9.75438 18.0893L9.69867 18.1067C9.50616 18.1669 9.34641 18.3028 9.25621 18.4832Z" fill="#02BDBD"/>
<path d="M17.7467 29.4847L18.0961 31.8253L19.738 31.5109C20.7361 31.2788 21.7042 30.9324 22.623 30.4785L22.8062 30.388C23.6931 29.9499 24.5348 29.4257 25.3192 28.823L27.4585 27.1791L26.3057 26.2009L20.9607 20.6463C20.0831 21.3854 19.078 21.9582 17.9948 22.3367L16.7336 22.7773L17.083 24.2795L17.7467 29.4847Z" fill="#02BDBD"/>
<path d="M6.74236 6.8821L4.8559 4.71616L5.17073 4.41707C5.89074 3.73306 6.67515 3.12019 7.51301 2.587L7.59115 2.53727C8.48983 1.96539 9.44848 1.49371 10.4499 1.13068C11.3067 0.820085 12.1908 0.59051 13.0905 0.444972L14.1135 0.27948L14.5677 4.40175C14.7307 5.40321 15.0568 7.45503 15.0568 7.65066C15.0568 7.84629 15.2314 8.6754 15.2314 9.04804L14.6444 9.17645C14.291 9.25376 13.9439 9.35745 13.606 9.48666C13.1536 9.6596 12.7198 9.87749 12.311 10.1371L10.7249 11.1441L9.60699 9.99127L6.74236 6.8821Z" fill="#02BDBD"/>
<path d="M8.16861 14.0255L8.0012 14.308C7.9539 14.3878 7.9133 14.4714 7.87981 14.558L7.51092 15.5109L7.36911 15.9009C7.27803 16.1514 7.23144 16.4158 7.23144 16.6823V16.7344C7.23144 16.8962 7.25229 17.0574 7.29347 17.2139C7.36756 17.4954 7.50492 17.7602 7.7443 17.9258C8.01587 18.1138 8.33043 18.2761 8.41921 18.3057C8.50341 18.3337 8.61578 18.3393 8.73143 18.3245C9.0638 18.2821 9.32819 18.0374 9.60699 17.8515C9.92845 17.6015 10.3313 17.7754 10.6438 18.0366C10.6692 18.0579 10.6962 18.0778 10.7249 18.0961C11.1092 18.3406 11.5633 18.3057 11.8428 18.3057H12.9258H14.2882H15.6507H17.083C17.7467 18.3057 17.5721 18.2707 18.0961 18.3057C18.6201 18.3406 19.1092 18.2707 19.2838 18.2707C19.4236 18.2707 20.3668 18.2475 20.821 18.3057H22.1834C22.6725 18.3057 22.6026 18.3406 22.9869 18.3406C23.1654 18.3406 23.3919 18.376 23.5937 18.4056C23.8268 18.4398 24.049 18.3356 24.1921 18.1485L24.3535 17.9374C24.3949 17.8833 24.4592 17.8515 24.5273 17.8515C24.5917 17.8515 24.6526 17.8799 24.695 17.9283C24.8414 18.095 25.0796 18.35 25.2227 18.4454C25.4323 18.5852 25.7316 18.4454 26.0611 18.4454C26.4105 18.4454 26.9345 18.4804 27.3537 18.4454C27.6028 18.4247 28.821 18.3988 29.3799 18.4454L30.5048 18.3965C30.8049 18.3835 31.0773 18.2174 31.2263 17.9565C31.3414 17.7551 31.3705 17.5162 31.3334 17.2871C31.2703 16.8972 31.2314 16.4253 31.2314 16.2795C31.2314 16.1178 30.9024 15.8706 30.7429 15.844C30.6571 15.8297 30.581 15.8253 30.5328 15.8253H29.869H29.2402H28.4017C28.0936 15.8253 27.9492 15.417 27.7527 15.1796L27.738 15.1616C27.5983 14.9869 27.4814 14.7502 27.3537 14.4629C27.214 14.1485 27.214 14.2183 27.214 13.869C27.214 13.6606 27.3305 13.4847 27.3898 13.3989C27.414 13.3639 27.4271 13.3239 27.4341 13.2819L27.4401 13.2459C27.4739 13.043 27.4161 12.8355 27.2822 12.6794C27.1502 12.5253 26.9575 12.4367 26.7546 12.4367H26.7249C26.6201 12.4367 26.4524 12.4018 26.2009 12.5415C25.9546 12.6783 25.7932 12.9 25.6509 13.1432C25.5184 13.3698 25.3238 13.608 25.2227 13.7293C24.8585 14.1663 24.5785 14.6684 24.2701 15.1464L24.0349 15.5109L24.0096 15.5562C23.7285 16.0581 23.1743 16.343 22.6026 16.2795H21.9389H21.2052C21.0306 16.2795 20.7022 16.3493 20.5066 16.2096C20.4227 16.1497 20.3829 16.0084 20.3712 15.8629C20.349 15.5848 20.4771 15.2894 20.549 15.0198C20.5672 14.9515 20.5924 14.8852 20.624 14.8219L20.821 14.428L21.0166 13.8968C21.0491 13.8087 21.0918 13.7247 21.1439 13.6466C21.275 13.4499 21.345 13.2189 21.345 12.9825V12.894C21.345 12.7759 21.3296 12.6584 21.2992 12.5443L21.2603 12.3987C21.2242 12.2634 21.1531 12.14 21.0541 12.041C20.9048 11.8917 20.7024 11.8079 20.4913 11.8079H20.4616C20.2861 11.8079 20.1147 11.8611 19.9701 11.9605L19.8562 12.0388C19.7106 12.1389 19.597 12.2789 19.5291 12.442C19.4825 12.5538 19.4585 12.6737 19.4585 12.7949V13.345C19.5045 13.6899 19.4727 14.0408 19.3653 14.3719L19.2519 14.7215C19.1571 15.0139 19.0284 15.2942 18.8686 15.5568L18.6201 15.9651L18.5311 16.0897C18.4754 16.1676 18.3965 16.2259 18.3056 16.2562C18.2594 16.2716 18.211 16.2795 18.1623 16.2795H17.7662C17.7068 16.2795 17.6474 16.2743 17.5888 16.2639L17.3174 16.2161C17.1699 16.19 17.0435 16.0957 16.9765 15.9617C16.9322 15.873 16.9168 15.7727 16.9326 15.6748L17.083 14.7424L17.1899 14.2435C17.2582 13.9244 17.3505 13.6109 17.4658 13.3056L17.767 12.5082C17.846 12.2992 17.8865 12.0777 17.8865 11.8542V11.3616C17.8865 11.2216 17.8346 11.0865 17.7409 10.9824C17.6334 10.863 17.4803 10.7948 17.3196 10.7948H17.083H16.7361C16.5332 10.7948 16.3386 10.8754 16.1951 11.0188C16.1127 11.1013 16.0502 11.2014 16.0124 11.3117L15.6507 12.3668L15.2314 13.9389L14.7954 15.3406C14.7602 15.4535 14.7084 15.5605 14.6416 15.6581C14.4205 15.9814 14.054 16.1747 13.6623 16.1747H13.4498H13.1637C13.01 16.1747 12.8611 16.1208 12.743 16.0224L12.7163 16.0001C12.5834 15.8894 12.5066 15.7253 12.5066 15.5523C12.5066 15.5248 12.5085 15.4972 12.5124 15.4699L12.6114 14.7773L12.7384 14.1739C12.7468 14.1338 12.7511 14.0929 12.7511 14.0519C12.7511 13.8703 12.6677 13.6987 12.5249 13.5864L12.3582 13.4555C12.2951 13.4059 12.2205 13.373 12.1413 13.3598C12.0826 13.35 12.0225 13.3513 11.9642 13.3636L11.8223 13.3934C11.5418 13.4525 11.2902 13.6064 11.1098 13.8292L10.7948 14.2183L10.1622 15.1172C10.1415 15.1467 10.1172 15.1735 10.09 15.197L9.58064 15.6369C9.49515 15.7107 9.36245 15.65 9.36245 15.537C9.36245 15.5198 9.36582 15.5027 9.37239 15.4868L9.5654 15.018C9.59308 14.9508 9.61535 14.8815 9.632 14.8107L9.78241 14.1715C9.84303 13.9139 9.71461 13.6491 9.47478 13.5371C9.40079 13.5026 9.32013 13.4847 9.23848 13.4847H9.1177C8.72803 13.4847 8.36727 13.6903 8.16861 14.0255Z" fill="#02BDBD"/>
<path d="M18.8646 31.5459L17.5371 23.0568L18.2222 22.8741C18.4638 22.8097 18.7005 22.7279 18.9304 22.6293C19.3505 22.4493 19.745 22.2146 20.1038 21.9314L20.2271 21.8341L20.7511 21.4149L21.9738 22.7773L24.2445 25.2227L25.4323 26.4105L26.655 27.7031L25.607 28.5764L24.6638 29.2751L23.1965 30.1485L21.5546 30.8472L20.2271 31.2664L18.8646 31.5459Z" fill="white"/>
<path d="M10.0262 18.7249H9.53712C9.65341 19.004 9.78988 19.2743 9.94545 19.5336L10.0262 19.6681C10.2813 20.1088 10.5928 20.5142 10.9528 20.8742L11.0393 20.9607C11.5037 21.4019 12.0151 21.7907 12.5644 22.1203L12.6114 22.1485L13.0156 22.3425C13.3278 22.4924 13.6516 22.6171 13.9837 22.7155C14.2795 22.8032 14.5811 22.8697 14.8864 22.9146L14.9031 22.9171C15.3768 22.9867 15.8566 23.0058 16.3344 22.9739L16.6638 22.952L17.1697 22.8616C17.4841 22.8055 17.794 22.7266 18.097 22.6256C18.4914 22.4941 18.8725 22.3257 19.2353 22.1226L19.5633 21.9389L20.3319 21.4149C20.5066 21.2635 20.8711 20.9805 20.8908 20.9607C21.2299 20.6217 21.4726 20.1975 21.7268 19.7909L21.869 19.5633L22.1485 19.0743H21.6245L21.3799 19.4585L21.1354 19.8428L21.1009 19.8905C20.8218 20.277 20.5057 20.6354 20.1572 20.9607L19.5284 21.4498L18.8646 21.8341L18.2009 22.1136L17.3275 22.3581L17.2116 22.3802C16.8007 22.4584 16.3834 22.4978 15.9651 22.4978H15.3362C14.9642 22.4513 14.5967 22.3744 14.2372 22.2679L13.8341 22.1485L13.6082 22.0481C13.1306 21.8358 12.669 21.5892 12.2271 21.3101C11.7666 20.9647 11.3297 20.5757 10.9345 20.1572L10.4105 19.4236L10.0262 18.7249Z" fill="white"/>
<path d="M8.97817 15.1965L9.32751 14.0087H8.80349L8.04635 16.4777C8.01562 16.5779 8 16.6821 8 16.7869V16.8741C8 16.9429 8.01237 17.0112 8.03653 17.0756C8.08081 17.1937 8.16275 17.2939 8.26968 17.3607L8.3274 17.3968C8.36518 17.4204 8.40564 17.4395 8.44792 17.4535C8.54348 17.4854 8.64584 17.4911 8.74434 17.47L8.89788 17.4371C9.02043 17.4108 9.13781 17.3645 9.24529 17.3L9.43231 17.1878L9.88646 16.8384L10.3057 16.4192L11.2489 15.3363L11.0742 15.8603L10.9736 16.142C10.9244 16.2797 10.8929 16.423 10.8796 16.5686L10.8741 16.6292C10.8678 16.6987 10.8681 16.7686 10.8751 16.838L10.8865 16.9522C10.8951 17.0383 10.9227 17.1215 10.9672 17.1957C10.9919 17.2369 11.0215 17.2748 11.0555 17.3087L11.0581 17.3114C11.1372 17.3905 11.2364 17.4467 11.3449 17.4738L11.3725 17.4807C11.4296 17.495 11.4883 17.5022 11.5472 17.5022H15.2085C15.335 17.5022 15.4564 17.4519 15.5459 17.3625C15.6353 17.4519 15.7567 17.5022 15.8832 17.5022H19.1561C19.2826 17.5022 19.404 17.4519 19.4935 17.3625C19.6065 17.4529 19.747 17.5022 19.8918 17.5022H23.3187C23.4458 17.5022 23.5719 17.4793 23.6909 17.4347C23.7571 17.4099 23.8206 17.3785 23.8805 17.3411L23.8913 17.3343C24.0094 17.2605 24.1136 17.1665 24.1992 17.0565L25.048 15.9651L25.9913 14.7074L26.4804 15.5109L26.5826 15.695C26.6305 15.7812 26.6622 15.8754 26.6761 15.9729C26.6853 16.0373 26.6867 16.1026 26.6802 16.1674L26.6661 16.308C26.6588 16.3816 26.6381 16.4531 26.6051 16.5192C26.5689 16.5916 26.5186 16.656 26.4571 16.7086L26.4546 16.7108C26.3576 16.7939 26.2376 16.8453 26.1106 16.858L25.9563 16.8734H25.2926L25.1179 17.5022H26.0262H30.7074L30.8472 16.8384H28.0873H27.0044L27.1441 16.559L27.2177 16.3749C27.2614 16.2657 27.2838 16.1492 27.2838 16.0316C27.2838 15.9642 27.2765 15.8969 27.2618 15.8311L27.214 15.6157C27.1442 15.4298 27.0578 15.2506 26.9556 15.0803L26.7948 14.8122L26.5705 14.4479C26.5339 14.3884 26.5067 14.3236 26.4897 14.2558L26.4844 14.2345C26.4589 14.1324 26.4606 14.0253 26.4896 13.9241C26.5066 13.8645 26.5328 13.8078 26.5672 13.7561L26.7249 13.5197L26.8996 13.2751L26.5153 13.0655L24 16.4891L23.767 16.7803C23.7364 16.8186 23.6978 16.8498 23.6539 16.8717C23.6059 16.8958 23.5528 16.908 23.499 16.9075L19.9771 16.8737C19.9575 16.8735 19.938 16.871 19.919 16.8662L19.8967 16.8606C19.8403 16.8466 19.7929 16.8085 19.7669 16.7566C19.7481 16.719 19.7417 16.6764 19.7486 16.6349L19.7729 16.4891L19.9476 15.8603L20.5415 13.8341H19.9825L19.5633 15.1965L19.214 16.3494L19.1384 16.5509C19.1191 16.6024 19.1092 16.657 19.1092 16.7121C19.1092 16.7496 19.1138 16.787 19.1229 16.8234L19.1441 16.9083H19.0742L16.0484 16.8747C15.9735 16.8739 15.903 16.8395 15.8562 16.781C15.8141 16.7284 15.7951 16.661 15.8035 16.5941L15.8253 16.4192L15.8952 16.1048L17.1523 11.7533C17.205 11.5708 17.0681 11.3887 16.8781 11.3887C16.7511 11.3887 16.6394 11.4726 16.604 11.5945L15.4061 15.7205L15.1965 16.4192L15.1492 16.6796C15.1347 16.7591 15.1517 16.8411 15.1965 16.9083H15.0568H11.7672C11.7038 16.9083 11.6429 16.8831 11.598 16.8382C11.5751 16.8153 11.5571 16.788 11.5451 16.7579L11.5362 16.7357C11.5084 16.6662 11.5032 16.5898 11.5214 16.5172L11.5633 16.3494L11.738 15.7205L12.0175 14.7074L12.0885 14.4231C12.1412 14.2126 11.982 14.0087 11.765 14.0087C11.66 14.0087 11.5612 14.0582 11.4982 14.1421L11.3886 14.2882L11.0742 14.7074L10.69 15.1965L10.1659 15.8253L9.53712 16.4192L9.20679 16.722C9.14796 16.776 9.08043 16.8196 9.00707 16.851L8.90897 16.8931C8.88548 16.9031 8.86018 16.9083 8.83463 16.9083C8.77153 16.9083 8.7126 16.8768 8.6776 16.8243L8.64438 16.7744C8.61145 16.7251 8.59389 16.667 8.59389 16.6077V16.5793C8.59389 16.5426 8.59899 16.5062 8.60906 16.4709L8.73362 16.035L8.97817 15.1965Z" fill="white"/>
<path d="M10.131 13.2751L9.64192 13.1703C9.78137 12.845 9.95033 12.533 10.1467 12.2385L10.2707 12.0524L10.4738 11.7769C10.6641 11.5186 10.8771 11.2779 11.1104 11.0576C11.2957 10.8826 11.4931 10.721 11.7013 10.5741L11.9825 10.3756L12.8908 9.85154L13.2783 9.68904C13.7412 9.49493 14.2192 9.33898 14.7074 9.22272L15.5459 9.11792H16.2096L16.8035 9.18779L17.5022 9.32753L18.0611 9.46726L18.6201 9.67687L19.179 9.95635C19.5741 10.1655 19.9495 10.4101 20.3004 10.6871L20.4367 10.7948L20.9258 11.2489L21.0437 11.3865C21.3838 11.7833 21.6947 12.2044 21.9738 12.6463L22.2533 13.1703L22.5328 13.9039L22.6488 14.368C22.7111 14.6172 22.754 14.8708 22.7773 15.1267H22.2882L22.2533 14.8472L22.0786 14.1485L21.7991 13.4498L21.4847 12.821L21.0655 12.1922L20.6812 11.738C20.3327 11.3662 19.9492 11.0288 19.5361 10.7305L19.5284 10.7249L18.7598 10.2708L18.0262 9.95635L17.2576 9.74674L17.1432 9.72843C16.638 9.64761 16.1273 9.607 15.6157 9.607C15.1275 9.6535 14.6441 9.74096 14.1705 9.86846L13.9738 9.92141L13.1354 10.2708L12.2271 10.7948L11.6332 11.2489L11.3806 11.5015C11.1766 11.7055 10.9874 11.9237 10.8143 12.1545C10.6385 12.3889 10.4798 12.6357 10.3395 12.893L10.131 13.2751Z" fill="white"/>
<path d="M20.0066 13.2643L20.0337 13.2914C20.1128 13.3704 20.22 13.4149 20.3319 13.4149H20.4404C20.5071 13.4149 20.5731 13.4013 20.6344 13.3751C20.7328 13.3329 20.8148 13.2598 20.8679 13.1668L20.8903 13.1276C20.9139 13.0864 20.9324 13.0424 20.9454 12.9968C20.9781 12.8822 20.9755 12.7605 20.9378 12.6475L20.9299 12.6237C20.9042 12.5467 20.8609 12.4767 20.8035 12.4192C20.7461 12.3618 20.676 12.3185 20.599 12.2928L20.5919 12.2905C20.5354 12.2716 20.4762 12.262 20.4165 12.262H20.3989C20.3089 12.262 20.2201 12.283 20.1396 12.3232L20.1342 12.3259C20.0353 12.3754 19.9533 12.453 19.8984 12.549C19.8617 12.6132 19.8381 12.6841 19.8289 12.7575C19.8152 12.8672 19.8343 12.9786 19.8837 13.0775L19.9103 13.1306C19.935 13.1801 19.9675 13.2252 20.0066 13.2643Z" fill="white"/>
<path d="M4.79553 13.6784L4.95121 13.9897C4.95752 14.0024 4.96507 14.0143 4.97374 14.0255C5.07585 14.1568 4.99611 14.3493 4.83107 14.3699L4.64629 14.393L4.52572 14.4131C4.1907 14.4689 3.87134 14.5952 3.58874 14.7836C3.45568 14.8723 3.31307 14.9464 3.17684 15.0302C2.92909 15.1825 2.62921 15.4122 2.48035 15.476C2.39889 15.5109 2.29239 15.5712 2.18911 15.6424C1.93269 15.8191 1.73375 16.0721 1.50335 16.2816C1.2261 16.5336 1.00455 16.8406 0.85815 17.1855C0.709618 17.5354 0.562344 17.8814 0.489085 17.9913C0.377294 18.1589 0.337702 18.7715 0.384281 18.9694L0.572661 19.8575C0.609784 20.0325 0.678825 20.1992 0.776327 20.3492C0.973655 20.6528 1.2759 20.8772 1.61327 21.0086C1.72632 21.0527 1.81846 21.0894 1.85153 21.1004C2.48247 21.3107 3.11368 20.7071 3.67205 20.3458L4.01747 20.1223L4.58873 19.6568C4.83625 19.4551 5.06604 19.2326 5.27555 18.9916C5.53075 18.6982 5.7546 18.3788 5.94348 18.0389L6.35808 17.2926L6.76232 16.4219C6.79541 16.3506 6.83895 16.2847 6.89152 16.2263L6.99926 16.1066C7.08034 16.0165 7.19585 15.9651 7.31705 15.9651C7.45999 15.9651 7.59348 15.8936 7.67277 15.7747L7.74533 15.6658C7.79806 15.5868 7.83341 15.4974 7.84904 15.4036L7.91661 14.9982C7.92561 14.9442 7.93013 14.8895 7.93013 14.8348V14.4734C7.93013 14.3791 7.88459 14.2906 7.80786 14.2358C7.73113 14.181 7.68559 14.0925 7.68559 13.9982V13.7991C7.68559 13.4299 7.75605 13.064 7.89318 12.7212L8.17467 12.0175L8.40619 11.2808C8.50744 10.9587 8.55895 10.6229 8.55895 10.2852V9.85503C8.55895 9.57772 8.48888 9.3049 8.35524 9.06192L8.29498 8.95236C8.21579 8.80838 8.10525 8.68403 7.97153 8.58852C7.78556 8.45569 7.56274 8.38428 7.3342 8.38428H7.29138C7.18204 8.38428 7.07319 8.39885 6.96771 8.42762L6.84961 8.45983C6.52642 8.54797 6.22838 8.71061 5.97939 8.93471L5.65939 9.22271L5.27891 9.64709C4.93158 10.0345 4.67682 10.4958 4.53388 10.9961C4.44622 11.3029 4.40175 11.6204 4.40175 11.9395V12.0103C4.40175 12.5894 4.53657 13.1605 4.79553 13.6784Z" fill="#02BDBD"/>
<path d="M11.2838 10.5852L5.37988 4.29697L6.04364 3.77296L7.23141 2.89959L9.08294 1.81662L10.5502 1.1878L12.0873 0.733655L13.1703 0.524048L14.5327 9.01313L13.9388 9.15287L13.4498 9.29261L12.8209 9.53715L12.3318 9.81662L11.7729 10.2358L11.2838 10.5852Z" fill="white"/>
<path d="M5.41485 13.7293L5.58952 14.0786L6.04367 13.869L5.90393 13.5546L5.69432 12.8908L5.6496 12.697C5.60968 12.524 5.58952 12.3471 5.58952 12.1695C5.58952 11.9298 5.62625 11.6916 5.69842 11.463L5.72807 11.3691C5.77537 11.2193 5.83441 11.0735 5.90465 10.9331L5.97709 10.7882C6.06782 10.6067 6.17669 10.4349 6.30203 10.2754L6.3631 10.1977C6.45266 10.0837 6.55396 9.97942 6.66533 9.88661L6.78657 9.78558C6.87301 9.71355 6.97024 9.65558 7.0747 9.61379L7.2303 9.55155C7.25413 9.54202 7.27956 9.53712 7.30523 9.53712C7.36874 9.53712 7.42854 9.56702 7.46664 9.61783L7.469 9.62097C7.49621 9.65725 7.51092 9.70138 7.51092 9.74673V9.90312C7.51092 9.98451 7.49628 10.0652 7.4677 10.1415L7.40611 10.3057L7.26638 10.8297L7.05677 11.6681L6.74236 12.6463L6.39301 13.9389L6.11354 14.8821L5.41485 14.952L4.89083 15.0568L4.80541 15.0781C4.5833 15.1337 4.36642 15.2083 4.15721 15.3013L3.35371 15.7205C3.07481 15.8832 2.81117 16.0708 2.56601 16.2809L2.44541 16.3843C2.16695 16.6395 1.92029 16.9274 1.71075 17.2417L1.60699 17.3974L1.54572 17.5199C1.35439 17.9026 1.21071 18.3073 1.1179 18.7249L1.0763 19.0369C1.05758 19.1773 1.06221 19.3198 1.08998 19.4586L1.09268 19.4721C1.10944 19.556 1.13542 19.6377 1.17015 19.7158L1.18901 19.7583C1.23438 19.8603 1.29866 19.9537 1.37764 20.0327C1.43683 20.0919 1.50438 20.1429 1.57756 20.1836C1.71142 20.2579 1.86201 20.2969 2.01514 20.2969H2.06748C2.17905 20.2969 2.28998 20.28 2.39648 20.2467L2.53663 20.2029C2.70798 20.1494 2.87163 20.0737 3.02342 19.9779L3.21572 19.8564C3.37735 19.7543 3.53106 19.6402 3.67552 19.515L3.98253 19.2489C4.51733 18.6909 5.0065 18.0908 5.44532 17.4545L5.48472 17.3974L6.11354 16.3843L6.49073 15.527C6.49544 15.5163 6.50108 15.506 6.50758 15.4963C6.54513 15.4399 6.60834 15.4061 6.67604 15.4061H7.40611V14.8821H6.80457C6.77021 14.8821 6.74236 14.8542 6.74236 14.8199C6.74236 14.8148 6.74298 14.8097 6.74422 14.8048L7.05677 13.5546L7.58079 11.9127L7.96507 10.3756L8.04231 9.86059C8.06052 9.73919 8.0557 9.61545 8.02809 9.49584L7.99749 9.36322C7.9763 9.2714 7.92973 9.18738 7.8631 9.12075C7.79291 9.05056 7.70352 9.00272 7.60618 8.98325L7.54508 8.97103C7.45334 8.95268 7.35888 8.95268 7.26715 8.97103L7.2077 8.98292C7.10765 9.00293 7.01121 9.03796 6.92164 9.08681L6.81705 9.14386C6.72088 9.19632 6.62971 9.25747 6.54469 9.32655L6.41483 9.43206C6.21454 9.59479 6.03224 9.77849 5.87103 9.98L5.69432 10.2009L5.45899 10.586C5.35995 10.748 5.27785 10.9198 5.21397 11.0987C5.16166 11.2452 5.12179 11.3958 5.09476 11.5489L5.07877 11.6395C5.0467 11.8213 5.03057 12.0055 5.03057 12.1901C5.03057 12.4927 5.07392 12.7937 5.1593 13.084L5.20524 13.2402L5.41485 13.7293Z" fill="white"/>
<path d="M1.78164 18.5153L1.76519 18.5688C1.68346 18.8344 1.64191 19.1107 1.64191 19.3887C1.64191 19.4337 1.65804 19.4773 1.68738 19.5116L1.79766 19.6402C1.8332 19.6817 1.87668 19.7156 1.92553 19.7401C2.01303 19.7838 2.11329 19.7948 2.20819 19.7711L2.34196 19.7377C2.43346 19.7148 2.52006 19.6756 2.5976 19.6219L2.93448 19.3887L3.4585 18.9694L3.60949 18.8436C3.92717 18.5789 4.21612 18.2815 4.4716 17.9563C4.72744 17.6307 4.95902 17.2868 5.16447 16.9272L5.27509 16.7336L5.58801 16.233C5.72799 16.009 5.83442 15.7657 5.90392 15.5109H5.69431C5.34575 15.5574 5.00237 15.6368 4.66876 15.748L4.64627 15.7555L4.08732 16L3.52837 16.3144L3.14409 16.5939C2.86532 16.8262 2.61067 17.086 2.38398 17.3694L2.30566 17.4673C2.09665 17.7924 1.92282 18.1388 1.7871 18.5007L1.78164 18.5153Z" fill="#02BDBD"/>
</g>
<defs>
<clipPath id="clip0_4_35">
<rect width="32" height="32.0694" fill="white"/>
</clipPath>
</defs>
</svg>
